Coordinates
version=1
nRows=8
nColumns=40
inDegrees=yes

Units are S.I. units (second, meters, Newtons, ...)
Angles are in degrees.

endheader
time	pelvis_tilt	pelvis_list	pelvis_rotation	pelvis_tx	pelvis_ty	pelvis_tz	hip_flexion_r	hip_adduction_r	hip_rotation_r	knee_angle_r	knee_angle_r_beta	ankle_angle_r	subtalar_angle_r	mtp_angle_r	hip_flexion_l	hip_adduction_l	hip_rotation_l	knee_angle_l	knee_angle_l_beta	ankle_angle_l	subtalar_angle_l	mtp_angle_l	lumbar_extension	lumbar_bending	lumbar_rotation	arm_flex_r	arm_add_r	arm_rot_r	elbow_flex_r	pro_sup_r	wrist_flex_r	wrist_dev_r	arm_flex_l	arm_add_l	arm_rot_l	elbow_flex_l	pro_sup_l	wrist_flex_l	wrist_dev_l
      0.00000000	     -2.21836532	     -0.42459544	     -0.01100305	     -0.79227314	      0.88475250	     -0.97503166	      1.43411857	      3.21492125	    -12.78056419	    -18.32312522	     -0.31979886	     13.55547690	      0.98947523	     -4.72618499	     31.82327056	      6.98693034	      9.84361982	    -48.19322146	     -0.84113039	      8.44115798	     18.49757689	     20.98138711	     -5.01893955	      0.08273030	      2.98481795	      0.67191472	     -9.45478386	     -8.78633142	     41.43080213	     89.95437384	      0.00000000	      0.00000000	     -7.64785805	      7.23248322	     23.07554659	     36.32089906	     89.95437384	      0.00000000	      0.00000000
      0.01000000	     -2.20977834	     -0.33545512	     -0.27029194	     -0.78372218	      0.88412993	     -0.97580167	      0.68689600	      3.02684211	    -12.76047082	    -18.07579213	     -0.31548209	     13.87353029	      1.40722212	     -4.86259561	     32.19938516	      6.74353407	      9.85510964	    -45.51985496	     -0.79447134	      8.21634150	     18.19547601	     20.53837962	     -5.10242156	     -0.01432859	      3.25274568	      0.99248571	     -9.65933116	     -8.73823540	     42.50405268	     89.95437384	      0.00000000	      0.00000000	     -7.70835800	      6.94115599	     22.96624088	     35.35444447	     89.95437384	      0.00000000	      0.00000000
      0.02000000	     -2.21754990	     -0.25436579	     -0.42417162	     -0.77503297	      0.88338948	     -0.97677018	      0.05426196	      2.68784526	    -13.46681332	    -18.12579611	     -0.31635482	     14.17911849	      2.80436608	     -5.55095075	     32.51803325	      6.48384650	      9.82870894	    -42.74098578	     -0.74597093	      7.85658536	     17.63117327	     18.83144192	     -5.14986642	     -0.09786625	      3.39793673	      1.30471160	     -9.88488873	     -8.57458552	     43.52768682	     89.95437384	      0.00000000	      0.00000000	     -7.82958178	      6.69795882	     22.77626930	     34.45724068	     89.95437384	      0.00000000	      0.00000000
      0.03000000	     -2.45411088	     -0.28755015	     -0.66359596	     -0.76663215	      0.88224945	     -0.97754191	     -0.38763753	      2.65261724	    -13.37268207	    -17.91301735	     -0.31264113	     14.37613852	      2.93847628	     -5.64793076	     33.07711292	      6.43648501	      9.87478430	    -40.03328112	     -0.69871257	      7.62316989	     16.75080600	     18.39081042	     -4.97149450	     -0.08515797	      3.67086157	      1.60115808	    -10.09873986	     -8.49419118	     44.46692326	     89.95437384	      0.00000000	      0.00000000	     -7.86072053	      6.43209411	     22.71693292	     33.48617984	     89.95437384	      0.00000000	      0.00000000
      0.04000000	     -2.56195317	     -0.36339722	     -0.93253122	     -0.75811185	      0.88122548	     -0.97837374	     -0.81828964	      2.59288038	    -13.35361547	    -18.09971185	     -0.31589957	     14.48117416	      3.08816013	     -5.71630071	     33.40725777	      6.47692620	      9.93711509	    -37.37383602	     -0.65229649	      7.46998125	     15.54697592	     17.83176857	     -4.94073547	     -0.01257132	      3.93398147	      1.95274344	    -10.35626091	     -8.32435250	     45.37165558	     89.95437384	      0.00000000	      0.00000000	     -7.91207905	      6.16536444	     22.63275502	     32.56468205	     89.95437384	      0.00000000	      0.00000000
      0.05000000	     -2.35834369	     -0.29668422	     -1.24585085	     -0.74908626	      0.88069300	     -0.97907224	     -1.67181467	      2.25491715	    -14.01556685	    -18.09781686	     -0.31586649	     14.50795457	      4.34504703	     -8.18090739	     33.19494993	      6.55674777	     10.59439589	    -34.57099045	     -0.60337761	      6.41793513	     14.85461920	      9.50847364	     -5.23168098	     -0.13815700	      4.26230496	      2.31671933	    -10.48889235	     -8.33536842	     46.10572281	     89.95437384	      0.00000000	      0.00000000	     -7.88107327	      5.93325329	     22.68938383	     31.58543246	     89.95437384	      0.00000000	      0.00000000
      0.06000000	     -2.64417307	     -0.59618872	     -1.41392213	     -0.74048212	      0.87920173	     -0.97990817	     -1.90044526	      2.47468430	    -14.07828262	    -18.28409533	     -0.31911766	     14.57396750	      4.27055863	     -8.14938994	     33.83568050	      6.89600054	     10.82994547	    -32.46286402	     -0.56658386	      6.56540613	     14.15940367	      9.38607847	     -4.99159116	      0.14975387	      4.37798026	      2.69277628	    -10.71821409	     -8.15206769	     46.74297358	     89.95437384	      0.00000000	      0.00000000	     -8.12074444	      5.69405490	     22.61776940	     31.01016891	     89.95437384	      0.00000000	      0.00000000
      0.07000000	     -2.64275844	     -0.42696809	     -1.85420909	     -0.73172714	      0.87840314	     -0.98066872	     -2.33254537	      2.12445607	    -13.70828898	    -18.64286201	     -0.32537932	     14.73639516	      4.24646042	     -8.17900342	     33.78687646	      6.92931328	     11.63852172	    -30.06182989	     -0.52467791	      6.46058887	     12.34858730	      8.91229955	     -5.10140310	     -0.09616270	      4.82700434	      3.03466628	    -10.90628251	     -7.99531677	     47.37976771	     89.95437384	      0.00000000	      0.00000000	     -7.84412749	      5.46536088	     22.93631148	     29.70996580	     89.95437384	      0.00000000	      0.00000000
